Coordinates
version=1
nRows=9
nColumns=24
inDegrees=yes

Units are S.I. units (second, meters, Newtons, ...)
Angles are in degrees.

endheader
time	pelvis_tilt	pelvis_list	pelvis_rotation	pelvis_tx	pelvis_ty	pelvis_tz	hip_flexion_r	hip_adduction_r	hip_rotation_r	knee_angle_r	ankle_angle_r	subtalar_angle_r	mtp_angle_r	hip_flexion_l	hip_adduction_l	hip_rotation_l	knee_angle_l	ankle_angle_l	subtalar_angle_l	mtp_angle_l	lumbar_extension	lumbar_bending	lumbar_rotation
      6.06000000	     -2.06161139	      0.53989040	     -3.72024401	      0.20081019	      0.70731566	      0.14075827	     27.66449536	      1.80684420	      3.42577336	    -55.73186315	     10.17569481	     -7.57301210	      0.00000000	     -0.34947208	      6.80902315	     26.58171077	      0.05881958	     -0.70185646	    -30.00841492	      0.00000000	    -16.70369981	      0.41277559	     -4.42023433
      6.07000000	     -2.39009358	      0.30111129	     -2.98766672	      0.21342234	      0.70695916	      0.14027453	     28.89756959	      1.99942325	      3.04169867	    -52.55978998	      9.75954084	     -9.52652653	      0.00000000	     -1.61706081	      6.37817945	     27.24334561	      1.00405159	     -0.34990581	    -30.08162381	      0.00000000	    -16.56530687	      0.77923764	     -4.89742198
      6.08000000	     -2.37243130	      0.08477585	     -2.17593853	      0.22615945	      0.70664718	      0.13973441	     29.49289574	      2.07110560	      2.63246066	    -48.93873985	      9.43332104	    -11.06192802	      0.00000000	     -3.23250691	      5.96270335	     28.18726516	      1.89934311	     -0.22867329	    -30.66928496	      0.00000000	    -16.81048834	      1.10611534	     -5.58182622
      6.09000000	     -2.66214409	      0.05824999	     -1.51383514	      0.23899068	      0.70555725	      0.13946082	     30.27390421	      2.01816904	      2.45449199	    -45.02245135	      9.11868790	    -12.21518404	      0.00000000	     -4.41103307	      5.75244605	     28.88148191	      2.58740810	      0.22503129	    -30.83736203	      0.00000000	    -16.59110607	      1.15825416	     -6.04065594
      6.10000000	     -2.48958670	      0.11447607	     -0.80508124	      0.25194102	      0.70470362	      0.13918558	     30.30497810	      1.80825467	      2.22918410	    -40.68821265	      8.88600415	    -13.05227231	      0.00000000	     -6.08644838	      5.58609302	     29.90956775	      3.24865059	      0.39019840	    -31.45287848	      0.00000000	    -16.89315729	      1.07803731	     -6.63520300
      6.11000000	     -2.56061326	      0.26595097	     -0.15864284	      0.26510912	      0.70323364	      0.13901768	     30.38488154	      1.51969778	      2.10383001	    -36.00761031	      8.76540954	    -13.46272195	      0.00000000	     -7.44386781	      5.51928215	     30.81051957	      3.75797344	      0.81562470	    -31.80280555	      0.00000000	    -16.79709704	      0.86729699	     -7.12714477
      6.12000000	     -2.63796120	      0.47864133	      0.46684307	      0.27852437	      0.70148916	      0.13889955	     30.23900134	      1.14954758	      1.96417564	    -30.96714223	      8.73433260	    -13.51082902	      0.00000000	     -8.78525799	      5.49093890	     31.72189287	      4.19173522	      1.33934496	    -31.99883682	      0.00000000	    -16.60653162	      0.56660307	     -7.56196091
      6.13000000	     -2.59286648	      0.78249011	      1.11269408	      0.29203038	      0.69965955	      0.13878524	     29.73134819	      0.67866031	      1.88315735	    -25.57020812	      8.70736329	    -13.43361277	      0.00000000	    -10.21321935	      5.54687980	     32.67424001	      4.49266720	      1.87028990	    -32.14338639	      0.00000000	    -16.57511824	      0.14847142	     -8.09744501
      6.14000000	     -2.53452296	      1.16868365	      1.76441312	      0.30576150	      0.69761236	      0.13866244	     29.01696049	      0.10706288	      1.76698700	    -19.91427453	      8.64905825	    -13.21540000	      0.00000000	    -11.64578832	      5.67936614	     33.58149814	      4.70372894	      2.44457461	    -32.16785895	      0.00000000	    -16.50799414	     -0.36870658	     -8.64346518
